<svg xmlns="http://www.w3.org/2000/svg" xmlns:xlink="http://www.w3.org/1999/xlink" width="30" height="30" viewBox="0 0 30 30">
  <defs>
    <clipPath id="clip-path">
      <rect x="-2" y="-1" width="30" height="30" fill="none"/>
    </clipPath>
  </defs>
  <g id="ksChLock" transform="translate(2 1)" clip-path="url(#clip-path)" style="isolation: isolate">
    <g id="Group_15" data-name="Group 15" transform="translate(580 -4045)">
      <path id="Vector" d="M18,6a6,6,0,1,1-1.757-4.243A6,6,0,0,1,18,6ZM0,22a1.959,1.959,0,0,0,2,2H12V22a3.8,3.8,0,0,1,.02-.4,8.98,8.98,0,0,1,3.068-7.386A21.133,21.133,0,0,0,12,14C2,14,0,20,0,22Zm14,0a2,2,0,0,1,2-2V18a4,4,0,1,1,8,0v2a2,2,0,0,1,2,2v4a2,2,0,0,1-2,2H16a2,2,0,0,1-2-2Zm6-6a2,2,0,0,0-2,2v2h4V18a2,2,0,0,0-2-2Z" transform="translate(-580 4045)" fill="#fff"/>
      <path id="Vector-2" data-name="Vector" d="M13.917,22a2.006,2.006,0,0,1,.582-1.414A1.982,1.982,0,0,1,15.905,20V18a4.012,4.012,0,0,1,1.165-2.828,3.96,3.96,0,0,1,5.623,0A4.012,4.012,0,0,1,23.858,18v2a1.982,1.982,0,0,1,1.406.586A2.006,2.006,0,0,1,25.846,22v4a2.006,2.006,0,0,1-.582,1.414A1.983,1.983,0,0,1,23.858,28H15.905a1.982,1.982,0,0,1-1.406-.586A2.006,2.006,0,0,1,13.917,26Zm5.964-6a1.982,1.982,0,0,0-1.406.586A2.006,2.006,0,0,0,17.894,18v2H21.87V18a2.006,2.006,0,0,0-.582-1.414A1.982,1.982,0,0,0,19.882,16Z" transform="translate(-579.846 4045)" fill="#fd4370"/>
    </g>
  </g>
</svg>
