<svg xmlns="http://www.w3.org/2000/svg" xmlns:xlink="http://www.w3.org/1999/xlink" width="40" height="40" viewBox="0 0 40 40">
  <defs>
    <clipPath id="clip-path">
      <rect x="-2" y="-5" width="40" height="40" fill="none"/>
    </clipPath>
  </defs>
  <g id="Scroll_Group_3" data-name="Scroll Group 3" transform="translate(2 5)" clip-path="url(#clip-path)" style="isolation: isolate">
    <g id="Group_14" data-name="Group 14" transform="translate(784 -4006.5)">
      <path id="Vector" d="M33.93,21.4a8,8,0,0,0,0-2.948l1.814-1.031a.5.5,0,0,0,.232-.588,10.347,10.347,0,0,0-2.335-3.973.519.519,0,0,0-.633-.1l-1.814,1.031A8.29,8.29,0,0,0,28.6,12.32V10.257a.506.506,0,0,0-.4-.491,10.776,10.776,0,0,0-4.655,0,.506.506,0,0,0-.4.491V12.32a8.29,8.29,0,0,0-2.595,1.474l-1.814-1.031a.52.52,0,0,0-.633.1,10.35,10.35,0,0,0-2.335,3.973.506.506,0,0,0,.232.588l1.814,1.031a7.994,7.994,0,0,0,0,2.948L16,22.432a.5.5,0,0,0-.232.588A10.4,10.4,0,0,0,18.1,26.993a.519.519,0,0,0,.633.1l1.814-1.031a8.289,8.289,0,0,0,2.595,1.474v2.063a.506.506,0,0,0,.4.491,10.776,10.776,0,0,0,4.655,0,.506.506,0,0,0,.4-.491V27.532a8.29,8.29,0,0,0,2.595-1.474l1.814,1.031a.52.52,0,0,0,.633-.1,10.348,10.348,0,0,0,2.335-3.973.506.506,0,0,0-.232-.588Zm-8.052,1.883a3.357,3.357,0,1,1,3.411-3.357A3.387,3.387,0,0,1,25.878,23.283ZM13.5,15.5c.134,0,.26-.035.394-.042a12.726,12.726,0,0,1,2.553-4.1,2.792,2.792,0,0,1,2.032-.872,2.737,2.737,0,0,1,1.378.367l.556.318c.056-.035.112-.062.169-.1a7.563,7.563,0,0,0,.788-3.322A7.811,7.811,0,0,0,13.495,0,7.8,7.8,0,0,0,5.626,7.745,7.811,7.811,0,0,0,13.5,15.5Zm7.4,13.462c-.162-.083-.323-.18-.478-.27a3.509,3.509,0,0,1-1.934.678,2.816,2.816,0,0,1-2.032-.872,12.574,12.574,0,0,1-2.827-4.817c-.752-2.388,1.751-3.44,1.814-3.481q-.011-.27,0-.54l-.556-.318a2.857,2.857,0,0,1-.689-.561c-.232.014-.457.042-.689.042a11.248,11.248,0,0,1-4.817-1.107H8.108A8.042,8.042,0,0,0,0,25.684v1.993A3.35,3.35,0,0,0,3.375,31h17.96a2.635,2.635,0,0,1-.436-1.405Z" transform="translate(-784 4006)" fill="#fff"/>
      <path id="Vector-2" data-name="Vector" d="M33.93,21.4a8,8,0,0,0,0-2.948l1.814-1.031a.5.5,0,0,0,.232-.588,10.347,10.347,0,0,0-2.335-3.973.519.519,0,0,0-.633-.1l-1.814,1.031A8.29,8.29,0,0,0,28.6,12.32V10.257a.506.506,0,0,0-.4-.491,10.776,10.776,0,0,0-4.655,0,.506.506,0,0,0-.4.491V12.32a8.29,8.29,0,0,0-2.595,1.474l-1.814-1.031a.52.52,0,0,0-.633.1,10.35,10.35,0,0,0-2.335,3.973.506.506,0,0,0,.232.588l1.814,1.031a7.994,7.994,0,0,0,0,2.948L16,22.432a.5.5,0,0,0-.232.588A10.4,10.4,0,0,0,18.1,26.993a.519.519,0,0,0,.633.1l1.814-1.031a8.289,8.289,0,0,0,2.595,1.474v2.063a.506.506,0,0,0,.4.491,10.776,10.776,0,0,0,4.655,0,.506.506,0,0,0,.4-.491V27.532a8.29,8.29,0,0,0,2.595-1.474l1.814,1.031a.52.52,0,0,0,.633-.1,10.348,10.348,0,0,0,2.335-3.973.506.506,0,0,0-.232-.588Zm-8.052,1.883a3.357,3.357,0,1,1,3.411-3.357A3.387,3.387,0,0,1,25.878,23.283Z" transform="translate(-784 4006)" fill="#fd4370"/>
    </g>
  </g>
</svg>
