<svg xmlns="http://www.w3.org/2000/svg" xmlns:xlink="http://www.w3.org/1999/xlink" width="30" height="30" viewBox="0 0 30 30">
  <defs>
    <clipPath id="clip-path">
      <rect y="-1" width="30" height="30" fill="none"/>
    </clipPath>
  </defs>
  <g id="ksChPremium" transform="translate(0 1)" clip-path="url(#clip-path)" style="isolation: isolate">
    <g id="Group_16" data-name="Group 16" transform="translate(618.088 -4045)">
      <path id="Group" d="M6.893,1a1.606,1.606,0,0,0-1.419.855L1.189,9.932a1.622,1.622,0,0,0,.152,1.755l10.573,13.6a7.056,7.056,0,0,1-.2-1.676,5.386,5.386,0,0,1,3.109-4.889L13,12.846h2.021a6.453,6.453,0,0,1,1.549-3.231h-4l1.339-5.385h4.187l.915,3.677a6.381,6.381,0,0,1,3.214-.388l-.814-3.289h2.734L27,9.615h-.851A6.465,6.465,0,0,1,27.54,15.7l3.12-4.013a1.622,1.622,0,0,0,.15-1.755L26.524,1.855A1.606,1.606,0,0,0,25.108,1ZM5,9.615,7.858,4.231h2.736L9.255,9.615Zm1.32,3.231H9.63l2.205,7.093Zm19.322,1.077a4.319,4.319,0,0,1-1.255,3.046,4.27,4.27,0,0,1-6.061,0,4.323,4.323,0,0,1,0-6.092,4.27,4.27,0,0,1,6.061,0A4.319,4.319,0,0,1,25.644,13.923Zm3.214,9.692c0,2.682-2.143,5.385-7.5,5.385s-7.5-2.692-7.5-5.385a3.239,3.239,0,0,1,.941-2.284,3.206,3.206,0,0,1,2.273-.946h8.572a3.206,3.206,0,0,1,2.273.946A3.239,3.239,0,0,1,28.858,23.615Z" transform="translate(-619.088 4044)" fill="#fff"/>
      <path id="Group-2" data-name="Group" d="M6.893,1a1.606,1.606,0,0,0-1.419.855L1.189,9.932a1.622,1.622,0,0,0,.152,1.755l10.573,13.6a7.056,7.056,0,0,1-.2-1.676,5.386,5.386,0,0,1,3.109-4.889L13,12.846h2.021a6.453,6.453,0,0,1,1.549-3.231h-4l1.339-5.385h4.187l.915,3.677a6.381,6.381,0,0,1,3.214-.388l-.814-3.289h2.734L27,9.615h-.851A6.465,6.465,0,0,1,27.54,15.7l3.12-4.013a1.622,1.622,0,0,0,.15-1.755L26.524,1.855A1.606,1.606,0,0,0,25.108,1ZM5,9.615,7.858,4.231h2.736L9.255,9.615Zm1.32,3.231H9.63l2.205,7.093Z" transform="translate(-619.088 4044)" fill="#fd4370"/>
    </g>
  </g>
</svg>
