<svg xmlns="http://www.w3.org/2000/svg" xmlns:xlink="http://www.w3.org/1999/xlink" width="30" height="30" viewBox="0 0 30 30">
  <defs>
    <clipPath id="clip-path">
      <rect x="-3" width="30" height="30" fill="none"/>
    </clipPath>
  </defs>
  <g id="Scroll_Group_3" data-name="Scroll Group 3" transform="translate(3)" clip-path="url(#clip-path)" style="isolation: isolate">
    <g id="Group_13" data-name="Group 13">
      <path id="Subtraction_2" data-name="Subtraction 2" d="M10.051,26.177a1.735,1.735,0,0,1-1.184-.454,1.491,1.491,0,0,1-.49-1.1V22.556H5.587A1.735,1.735,0,0,1,4.4,22.1a1.475,1.475,0,0,1,0-2.2,1.735,1.735,0,0,1,1.184-.455h2.79V17.771A10.182,10.182,0,0,1,2.11,14.3,8.823,8.823,0,0,1,.035,7.812,9.048,9.048,0,0,1,3.248,1.736,10.143,10.143,0,0,1,6.172,0L8.686,2.514A6.843,6.843,0,0,0,5.316,4.2,6.063,6.063,0,0,0,3.483,7.38a5.769,5.769,0,0,0,.382,3.586A6.315,6.315,0,0,0,6.33,13.752,7.063,7.063,0,0,0,10.051,14.8a6.931,6.931,0,0,0,4.735-1.818,6.145,6.145,0,0,0,1.7-2.668l2.51,2.51a9.556,9.556,0,0,1-2.766,3.108,10.474,10.474,0,0,1-4.5,1.841v1.681h2.79a1.733,1.733,0,0,1,1.184.455,1.473,1.473,0,0,1,0,2.2,1.733,1.733,0,0,1-1.184.455h-2.79v2.068a1.489,1.489,0,0,1-.491,1.1A1.733,1.733,0,0,1,10.051,26.177Z" transform="translate(0 3.823)" fill="#fff"/>
      <path id="Subtraction_1" data-name="Subtraction 1" d="M12.07,15.487h0L9.281,12.7c0-.093.007-.189.007-.285A5.872,5.872,0,0,0,8.159,8.966,6.592,6.592,0,0,0,5.154,6.68a7.131,7.131,0,0,0-2.362-.47L0,3.417A10.8,10.8,0,0,1,2.588,3.1h.025A10.493,10.493,0,0,1,8.73,5.056L10.823,3.1H9.846a1.731,1.731,0,0,1-1.184-.455,1.508,1.508,0,0,1-.49-1.1,1.508,1.508,0,0,1,.49-1.1A1.735,1.735,0,0,1,9.846,0h5.022a1.733,1.733,0,0,1,1.184.454,1.505,1.505,0,0,1,.491,1.1V6.207a1.488,1.488,0,0,1-.491,1.1,1.769,1.769,0,0,1-2.368,0,1.49,1.49,0,0,1-.49-1.1V5.3L11,7.332A8.889,8.889,0,0,1,12.6,11.649a8.615,8.615,0,0,1-.528,3.837Z" transform="translate(7.458)" fill="#fd4370"/>
    </g>
  </g>
</svg>
