<svg xmlns="http://www.w3.org/2000/svg" xmlns:xlink="http://www.w3.org/1999/xlink" width="30" height="30" viewBox="0 0 30 30">
  <defs>
    <clipPath id="clip-path">
      <rect x="-1" y="-1" width="30" height="30" fill="none"/>
    </clipPath>
  </defs>
  <g id="Scroll_Group_4" data-name="Scroll Group 4" transform="translate(1 1)" clip-path="url(#clip-path)" style="isolation: isolate">
    <g id="Group_14" data-name="Group 14" transform="translate(-7769 -5701)">
      <g id="Group_49" data-name="Group 49" transform="translate(7769 5701)">
        <path id="Path_30" data-name="Path 30" d="M17.922,18.5a2.068,2.068,0,0,0,2.089-2.082,1.965,1.965,0,0,0-2.047-2.17A2,2,0,0,0,15.9,16.378,1.942,1.942,0,0,0,17.922,18.5Z" transform="translate(-1.472 -0.551)" fill="#fff"/>
        <path id="Path_31" data-name="Path 31" d="M9.125,2A.875.875,0,0,1,10,2.875V3.75H24V2.875a.875.875,0,1,1,1.75,0V3.75H27.5A3.5,3.5,0,0,1,31,7.25V26.5A3.5,3.5,0,0,1,27.5,30H6.5A3.5,3.5,0,0,1,3,26.5V7.25a3.5,3.5,0,0,1,3.5-3.5H8.25V2.875A.875.875,0,0,1,9.125,2Zm17.42,5.25H7.454a.918.918,0,0,0-.954.875v1.75a.917.917,0,0,0,.954.875H26.546a.918.918,0,0,0,.954-.875V8.125A.918.918,0,0,0,26.545,7.25ZM19.338,24.383c2.2,0,3.5-1.867,3.5-5.026,0-3.385-1.367-4.669-3.418-4.669a3.076,3.076,0,0,0-3.145,3.166,2.9,2.9,0,0,0,2.933,3.1,2.439,2.439,0,0,0,2.42-1.383h.047c-.007,2.3-.807,3.787-2.284,3.787a1.731,1.731,0,0,1-1.837-1.435h-1.2a2.782,2.782,0,0,0,2.98,2.461Zm-5.057-9.511H13.173a22.055,22.055,0,0,0-2.3,1.409V17.5c.656-.45,1.7-1.085,2.2-1.36H13.1V24.2h1.181V14.869Z" transform="translate(-3 -2)" fill="#fff"/>
      </g>
    </g>
  </g>
</svg>
