<svg xmlns="http://www.w3.org/2000/svg" xmlns:xlink="http://www.w3.org/1999/xlink" width="30" height="30" viewBox="0 0 30 30">
  <defs>
    <clipPath id="clip-path">
      <rect x="-10" y="-9" width="30" height="30" fill="none"/>
    </clipPath>
  </defs>
  <g id="ksPlay" transform="translate(10 9)" clip-path="url(#clip-path)" style="isolation: isolate">
    <path id="Vector" d="M1.155,12a1.071,1.071,0,0,1-.547-.152A1.294,1.294,0,0,1,0,10.728V1.272A1.293,1.293,0,0,1,.608.152,1.059,1.059,0,0,1,1.726.167L9.473,5a1.155,1.155,0,0,1,.387.426,1.219,1.219,0,0,1,0,1.137,1.155,1.155,0,0,1-.387.426L1.725,11.833a1.075,1.075,0,0,1-.57.167Z" transform="translate(1)"/>
  </g>
</svg>
